<?xml version="1.0" encoding="UTF-8" standalone="no"?>
<svg
   height="48"
   viewBox="0 -960 960 960"
   width="48"
   version="1.1"
   id="svg3"
   sodipodi:docname="uil.svg"
   inkscape:version="1.4.2 (f4327f4, 2025-05-13)"
   xml:space="preserve"
   xmlns:inkscape="http://www.inkscape.org/namespaces/inkscape"
   xmlns:sodipodi="http://sodipodi.sourceforge.net/DTD/sodipodi-0.dtd"
   xmlns="http://www.w3.org/2000/svg"
   xmlns:svg="http://www.w3.org/2000/svg"><sodipodi:namedview
     id="namedview3"
     pagecolor="#ffffff"
     bordercolor="#000000"
     borderopacity="0.25"
     inkscape:showpageshadow="2"
     inkscape:pageopacity="0.0"
     inkscape:pagecheckerboard="0"
     inkscape:deskcolor="#d1d1d1"
     inkscape:zoom="6.078125"
     inkscape:cx="1.8097686"
     inkscape:cy="27.886889"
     inkscape:window-width="5120"
     inkscape:window-height="1369"
     inkscape:window-x="-8"
     inkscape:window-y="-8"
     inkscape:window-maximized="1"
     inkscape:current-layer="svg3" /><defs
     id="defs3"><linearGradient
       id="badgeGradient"
       x1="120"
       y1="-900"
       x2="880.30847"
       y2="-67.403603"
       gradientUnits="userSpaceOnUse"><stop
         offset="0"
         stop-color="#20c6b6"
         id="stop1" /><stop
         offset="0.99989998"
         stop-color="#00897b"
         id="stop2" /></linearGradient></defs><rect
     x="20"
     y="-940"
     width="920"
     height="920"
     rx="190"
     fill="url(#badgeGradient)"
     stroke="#73efe3"
     stroke-width="40"
     id="rect3"
     style="fill:url(#badgeGradient);opacity:1;stroke-width:20;stroke-dasharray:none" /><path
     style="fill:#ffffff;stroke-width:0.0486878"
     d="m 448.57916,-117.39182 c -26.12206,-2.60625 -37.48555,-4.62531 -57.45164,-10.20796 -73.15035,-20.45327 -136.04094,-70.36409 -173.67938,-137.83524 -15.39012,-27.58805 -27.42084,-63.15858 -32.27565,-95.42594 -3.1957,-21.23862 -3.5375,-34.3878 -3.14636,-121.04985 0.42149,-93.41079 0.36136,-92.23823 6.20178,-120.74575 3.43736,-16.77863 10.82857,-40.38965 18.36585,-58.66888 0.4656,-1.12902 0.25656,-1.70877 -0.61847,-1.71805 -2.22609,-0.0235 -20.77529,-9.30052 -28.19811,-14.10228 -16.34538,-10.57374 -31.79516,-24.77876 -35.14886,-32.31707 -2.89617,-6.51013 -3.50147,-17.92793 -1.30173,-24.55066 2.45683,-7.39668 8.11006,-13.98705 14.82778,-17.28565 5.01395,-2.46216 6.70171,-2.77623 14.90508,-2.77388 11.31825,0.006 14.33867,1.36784 26.01543,11.75288 12.51816,11.13385 24.61983,18.6252 36.92836,22.85987 l 5.0145,1.72527 3.25356,-4.53775 c 5.86794,-8.183 19.84468,-23.8215 30.64916,-34.29341 31.38005,-30.41358 70.22053,-54.05314 111.8874,-68.09809 55.34115,-18.65434 118.20759,-20.36127 174.29212,-4.7323 37.82056,10.53939 75.79403,29.89788 106.62588,54.35628 12.91556,10.24569 37.07497,34.49619 47.22494,47.40297 l 7.77327,9.88449 5.88618,-2.21561 c 13.60225,-5.11985 22.66122,-10.82998 36.72327,-23.14835 11.29936,-9.89795 16.32194,-11.95183 27.477,-11.23595 16.53675,1.06126 27.48391,12.02222 28.5565,28.59324 0.5779,8.92001 -1.53359,16.27501 -6.46227,22.50995 -4.39669,5.56186 -18.79204,17.43288 -29.8308,24.59899 -6.65198,4.3183 -25.61231,14.41859 -29.4941,15.71152 -0.93639,0.31196 -0.65859,1.85756 1.1225,6.24796 10.14996,25.02204 17.73714,54.41845 21.23453,82.27343 1.02689,8.18094 1.28349,52.55341 1.28349,222.01645 v 211.79202 l -2.10409,4.55298 c -2.96889,6.42469 -9.03377,12.61938 -15.62385,15.95853 l -5.64228,2.85864 -150.93114,0.0937 c -83.01291,0.0516 -152.46544,-0.0595 -154.33985,-0.24644 z m 265.83433,-172.8399 c 0,-104.85542 -0.082,-110.11353 -1.70379,-108.69935 -26.99881,23.54454 -55.09954,37.30159 -91.28961,44.69244 -9.4381,1.92736 -14.70523,2.25345 -44.30581,2.74277 l -33.5946,0.5553 0.23023,14.07753 c 1.07552,65.72326 41.56028,122.91302 103.89126,146.75989 17.60939,6.7371 34.02874,9.71005 54.84406,9.93049 l 11.92826,0.12634 z M 595.12856,-414.73554 c 25.46054,-2.08486 47.38521,-10.27169 67.35071,-25.14941 27.59961,-20.56561 45.45804,-50.59733 50.55223,-85.00974 1.25189,-8.46019 1.49759,-14.51624 1.04519,-25.76639 -1.30919,-32.51729 -8.56067,-62.87906 -21.79412,-91.24585 l -3.54669,-7.60325 -48.75113,0.34694 c -47.23461,0.33618 -48.99224,0.41584 -56.51178,2.5606 -36.27483,10.34643 -62.39685,38.22817 -70.22796,74.95774 -1.18376,5.55241 -1.74903,15.51782 -2.21748,39.09879 l -0.62826,31.64706 -2.88354,5.21818 c -9.88257,17.8812 -33.41252,22.16577 -48.55063,8.84052 -2.54164,-2.23766 -5.68754,-6.42737 -7.40337,-9.86061 l -2.98257,-5.9698 -0.0118,-22.97113 c -0.0118,-39.08024 -2.04228,-52.37466 -10.63442,-69.71151 -13.3228,-26.88151 -37.94489,-46.12194 -66.77057,-52.17702 -7.87407,-1.65402 -13.42011,-1.8422 -54.63219,-1.85366 l -45.86876,-0.0127 -3.93102,8.52038 c -11.19105,24.25875 -17.95414,49.66475 -20.67332,77.65705 -2.65611,27.35238 -0.0966,47.61407 8.75604,69.29469 18.02916,44.15826 60.23085,75.18881 107.57662,79.10066 14.11246,1.16602 218.62717,1.24391 232.73563,0.0886 z M 340.68529,-534.12511 c -5.99787,-2.20255 -15.03228,-10.91709 -17.78409,-17.15564 -3.03474,-6.87953 -3.1109,-17.71161 -0.17006,-24.32221 2.67737,-6.01813 9.6637,-13.39637 15.51731,-16.38673 3.99626,-2.04146 6.02708,-2.38994 13.92867,-2.38994 8.54802,0 9.65799,0.22965 14.6067,3.02232 21.98598,12.40748 21.90744,43.3756 -0.14095,55.38873 -4.41093,2.40318 -6.49096,2.88293 -13.49161,3.11138 -5.71265,0.18647 -9.57502,-0.20641 -12.46597,-1.26791 z m 253.16671,-1.40415 c -11.78961,-5.89139 -18.26683,-16.94146 -17.47193,-29.80595 1.03259,-16.69393 12.58567,-28.33742 29.09604,-29.3239 9.69525,-0.57928 15.72177,1.39006 22.26945,7.27709 9.57269,8.60686 13.17726,19.27842 10.30231,30.50036 -1.96093,7.65576 -4.24143,11.40273 -10.19121,16.74656 -5.93089,5.32717 -12.25521,7.59999 -21.13091,7.5938 -5.74877,-0.006 -7.90269,-0.50397 -12.87375,-2.98796 z"
     id="path4"
     sodipodi:nodetypes="ssssssssssssssscsssssscsssssssssscsscsssssscssscsssssscsssscssscsssscsssssssssssssssssssscs" /></svg>
